<svg width="26" height="26" viewBox="0 0 26 26" fill="none" xmlns="http://www.w3.org/2000/svg">
<path d="M11.9167 10.8334H14.0833C15.6154 10.8334 16.3814 10.8334 16.8574 11.3093C17.3333 11.7853 17.3333 12.5513 17.3333 14.0834V20.5834C17.3333 19.0513 17.3333 18.2853 17.8093 17.8093C18.2852 17.3334 19.0513 17.3334 20.5833 17.3334C22.1154 17.3334 22.8814 17.3334 23.3574 17.8093C23.8333 18.2853 23.8333 19.0513 23.8333 20.5834V23.8334H17.3333H8.66667H2.16667C2.16667 22.3013 2.16667 21.5353 2.64262 21.0593C3.11857 20.5834 3.88461 20.5834 5.41667 20.5834C6.94874 20.5834 7.71477 20.5834 8.19072 21.0593C8.66667 21.5353 8.66667 22.3013 8.66667 23.8334V14.0834C8.66667 12.5513 8.66667 11.7853 9.14262 11.3093C9.61857 10.8334 10.3846 10.8334 11.9167 10.8334Z" fill="#6117FF"/>
<path d="M12.0748 3.27441C12.4864 2.53593 12.6923 2.16669 13 2.16669C13.3077 2.16669 13.5136 2.53593 13.9252 3.27441L14.0317 3.46546C14.1487 3.67532 14.2072 3.78024 14.2984 3.84947C14.3896 3.91871 14.5032 3.9444 14.7303 3.9958L14.9372 4.0426C15.7366 4.22347 16.1362 4.3139 16.2313 4.6197C16.3264 4.9255 16.054 5.24413 15.509 5.88141L15.368 6.04628C15.2131 6.22738 15.1357 6.31793 15.1009 6.42994C15.066 6.54196 15.0777 6.66277 15.1011 6.90439L15.1225 7.12437C15.2048 7.97463 15.246 8.39977 14.9971 8.58876C14.7481 8.77775 14.3739 8.60544 13.6254 8.26082L13.4318 8.17166C13.2191 8.07373 13.1127 8.02476 13 8.02476C12.8873 8.02476 12.7809 8.07373 12.5682 8.17166L12.3746 8.26082C11.6261 8.60544 11.2519 8.77775 11.0029 8.58876C10.754 8.39977 10.7952 7.97463 10.8776 7.12437L10.8989 6.90439C10.9223 6.66277 10.934 6.54196 10.8992 6.42994C10.8643 6.31793 10.7869 6.22738 10.632 6.04628L10.491 5.88141C9.94606 5.24414 9.67357 4.9255 9.76867 4.6197C9.86376 4.3139 10.2635 4.22347 11.0629 4.0426L11.2697 3.9958C11.4968 3.94441 11.6104 3.91871 11.7016 3.84947C11.7928 3.78024 11.8513 3.67532 11.9683 3.46546L12.0748 3.27441Z" fill="#6117FF"/>
</svg>
