<svg width="26" height="26" viewBox="0 0 26 26" fill="none" xmlns="http://www.w3.org/2000/svg">
<path fill-rule="evenodd" clip-rule="evenodd" d="M15.1752 20.5864L15.1815 18.4166C15.1815 17.8183 15.6678 17.3333 16.2676 17.3333C16.8674 17.3333 17.3536 17.8183 17.3536 18.4166V20.5578C17.3536 21.0795 17.3536 21.3403 17.5209 21.5003C17.6881 21.6602 17.9441 21.6494 18.4559 21.6277C20.4741 21.5422 21.714 21.2693 22.588 20.3974C23.464 19.5236 23.7369 18.283 23.8219 16.2614C23.8388 15.8605 23.8472 15.66 23.7723 15.5263C23.6975 15.3925 23.3986 15.2256 22.8008 14.8919C22.137 14.5211 21.6883 13.8128 21.6883 13C21.6883 12.1871 22.137 11.4788 22.8008 11.1081C23.3986 10.7743 23.6975 10.6074 23.7723 10.4737C23.8472 10.3399 23.8388 10.1395 23.8219 9.73857C23.7369 7.71699 23.464 6.4764 22.588 5.60252C21.6371 4.65402 20.2532 4.41435 17.9051 4.35379C17.6022 4.34598 17.3536 4.59026 17.3536 4.89251V7.58331C17.3536 8.18162 16.8674 8.66665 16.2676 8.66665C15.6678 8.66665 15.1815 8.18162 15.1815 7.58331L15.1737 4.87341C15.1728 4.57487 14.9299 4.33331 14.6306 4.33331H10.828C6.73227 4.33331 4.68443 4.33331 3.41206 5.60252C2.53601 6.4764 2.26314 7.71699 2.17815 9.73857C2.16129 10.1395 2.15286 10.3399 2.22773 10.4737C2.30259 10.6074 2.60146 10.7743 3.19919 11.1081C3.86303 11.4788 4.31176 12.1871 4.31176 13C4.31176 13.8128 3.86303 14.5211 3.19919 14.8918C2.60146 15.2256 2.30259 15.3926 2.22773 15.5263C2.15286 15.66 2.16129 15.8605 2.17815 16.2614C2.26314 18.283 2.53601 19.5236 3.41206 20.3974C4.68443 21.6666 6.73227 21.6666 10.828 21.6666H14.0892C14.5998 21.6666 14.8551 21.6666 15.0141 21.5085C15.173 21.3505 15.1737 21.0958 15.1752 20.5864ZM17.3536 14.0833V11.9166C17.3536 11.3183 16.8674 10.8333 16.2676 10.8333C15.6678 10.8333 15.1815 11.3183 15.1815 11.9166V14.0833C15.1815 14.6816 15.6678 15.1666 16.2676 15.1666C16.8674 15.1666 17.3536 14.6816 17.3536 14.0833Z" fill="#6117FF"/>
</svg>
