<svg width="20" height="22" viewBox="0 0 20 22" fill="none" xmlns="http://www.w3.org/2000/svg">
<path d="M5.1709 8.33522C5.29437 8.08813 5.75678 7.74997 6.5 7.74997C7.24321 7.74997 7.70562 8.08813 7.8291 8.33522C8.01425 8.70575 8.46472 8.85602 8.83525 8.67087C9.20578 8.48572 9.35605 8.03525 9.1709 7.66472C8.71212 6.74662 7.60349 6.24997 6.5 6.24997C5.39651 6.24997 4.28787 6.74662 3.8291 7.66472C3.64394 8.03525 3.79422 8.48572 4.16475 8.67087C4.53528 8.85602 4.98575 8.70575 5.1709 8.33522Z" fill="#999999"/>
<path d="M13.5 7.74997C12.7568 7.74997 12.2944 8.08813 12.1709 8.33522C11.9857 8.70575 11.5353 8.85602 11.1647 8.67087C10.7942 8.48572 10.6439 8.03525 10.8291 7.66472C11.2879 6.74662 12.3965 6.24997 13.5 6.24997C14.6035 6.24997 15.7121 6.74662 16.1709 7.66472C16.3561 8.03525 16.2058 8.48572 15.8352 8.67087C15.4647 8.85602 15.0142 8.70575 14.8291 8.33522C14.7056 8.08813 14.2432 7.74997 13.5 7.74997Z" fill="#999999"/>
<path fill-rule="evenodd" clip-rule="evenodd" d="M6.83532 1.21219L5.72475 1.02709C4.69156 0.854865 3.83727 0.712457 3.15499 0.695973C2.43942 0.678685 1.77599 0.793703 1.22247 1.2626C0.66908 1.73139 0.446482 2.3665 0.345864 3.07485C0.249946 3.75009 0.249971 4.61547 0.250001 5.66189L0.250003 11C0.250003 16.9642 4.87373 19.8143 7.60498 20.9762L7.63161 20.9875C7.97181 21.1323 8.29036 21.2678 8.65619 21.359C9.04183 21.4551 9.45184 21.4964 10 21.4964C10.5482 21.4964 10.9582 21.4551 11.3438 21.359C11.7096 21.2678 12.0282 21.1323 12.3684 20.9875L12.395 20.9762C15.1263 19.8143 19.75 16.9642 19.75 11V5.66192C19.75 4.61548 19.7501 3.7501 19.6541 3.07485C19.5535 2.3665 19.3309 1.73139 18.7775 1.2626C18.224 0.793703 17.5606 0.678685 16.845 0.695973C16.1627 0.712457 15.3084 0.854865 14.2753 1.02709L13.1647 1.21219C11.5012 1.48944 10.7514 1.61205 10 1.61205C9.24858 1.61205 8.49881 1.48944 6.83532 1.21219ZM2.19203 2.40713C2.34577 2.2769 2.57647 2.18243 3.11876 2.19554C3.682 2.20914 4.43066 2.33211 5.5343 2.51605L6.66226 2.70404C8.2329 2.96585 9.10997 3.11205 10 3.11205C10.89 3.11205 11.7671 2.96585 13.3377 2.70404L14.4657 2.51604C15.5693 2.33211 16.318 2.20914 16.8813 2.19554C17.4235 2.18243 17.6542 2.2769 17.808 2.40713C17.9618 2.53747 18.0929 2.7494 18.1691 3.2858C18.2482 3.84308 18.25 4.60098 18.25 5.71887V11C18.25 16.0165 14.3958 18.495 11.8079 19.5959C11.4367 19.7538 11.2212 19.8437 10.981 19.9035C10.7511 19.9608 10.4711 19.9964 10 19.9964C9.5289 19.9964 9.24892 19.9608 9.01902 19.9035C8.77884 19.8437 8.56333 19.7538 8.19214 19.5959C5.6042 18.495 1.75 16.0165 1.75 11V5.71887C1.75 4.60098 1.7518 3.84308 1.83096 3.2858C1.90715 2.7494 2.03818 2.53747 2.19203 2.40713Z" fill="#999999"/>
<path d="M5.9569 12.4827C5.67123 12.7827 5.68549 13.2599 5.98544 13.5456L6.01577 13.5732C6.03121 13.5869 6.05113 13.6039 6.07562 13.6239C6.12461 13.6639 6.19189 13.7156 6.2782 13.7748C6.45092 13.8932 6.6995 14.0415 7.02945 14.1866C7.69192 14.4778 8.66958 14.75 10 14.75C11.3304 14.75 12.3081 14.4778 12.9706 14.1866C13.3005 14.0415 13.5491 13.8932 13.7218 13.7748C13.8081 13.7156 13.8754 13.6639 13.9244 13.6239C13.9489 13.6039 13.9688 13.5869 13.9842 13.5732L14.0041 13.5554L14.0115 13.5485L14.0146 13.5456L14.016 13.5443L14.0172 13.5431C14.3172 13.2574 14.3288 12.7827 14.0431 12.4827C13.76 12.1855 13.2913 12.1714 12.991 12.4492L12.9902 12.4498L12.9854 12.454L12.9758 12.4619C12.9578 12.4766 12.9239 12.5031 12.8735 12.5377C12.7728 12.6067 12.6058 12.7084 12.367 12.8134C11.8919 13.0222 11.1196 13.25 10 13.25C8.88043 13.25 8.10808 13.0222 7.63305 12.8134C7.39425 12.7084 7.22721 12.6067 7.12649 12.5377C7.09073 12.5132 7.06328 12.4927 7.04392 12.4776C7.03605 12.4715 7.02939 12.4662 7.02419 12.4619C7.01651 12.4557 7.01172 12.4515 7.00977 12.4498C6.70947 12.1714 6.2402 12.1853 5.9569 12.4827Z" fill="#999999"/>
</svg>
